<?xml version="1.0" encoding="utf-8"?>
<!-- Generator: Adobe Illustrator 23.0.1, SVG Export Plug-In . SVG Version: 6.00 Build 0)  -->
<svg version="1.1" id="Camada_1" xmlns="http://www.w3.org/2000/svg" xmlns:xlink="http://www.w3.org/1999/xlink" x="0px" y="0px"
	 viewBox="0 0 492 300" style="enable-background:new 0 0 492 300;" xml:space="preserve">
<style type="text/css">
	.st0{fill-rule:evenodd;clip-rule:evenodd;fill:#F8E000;}
	.st1{fill-rule:evenodd;clip-rule:evenodd;}
	.st2{fill:none;stroke:#F8E000;stroke-width:6.4443;stroke-miterlimit:22.9256;}
	.st3{fill:none;stroke:#F8E000;stroke-width:7.3855;stroke-miterlimit:22.9256;}
</style>
<g>
	<path class="st0" d="M136.7-4c9.1,10.9,24.1,24.9,34.5,26.2c7.6,1,14.8-5.9,18.5-13.4c5.7,7.7,17.9,18.1,29.6,18.9
		c11.3,0.8,17-8.5,22.8-17.6c5.1,9.9,13.3,19.8,24.4,18.7c10.8-1.1,20.1-12.2,26.6-21c4.9,7.8,10.8,16.3,21.6,14.9
		c10.7-1.4,24.9-18.3,30.6-26.5v163.3c0,34.5-15.3,67.8-37,93.9c-17.4,21-42.5,39.4-66.4,51.1c-29.2-12.4-56.8-37.7-75-63.4
		c-16.4-23.2-30.1-49-30.1-78.3C136.7,110,136.7,50.9,136.7-4L136.7-4z"/>
	<path class="st1" d="M143.4,10.5c7.8,8.8,17.5,18.3,30.2,18.3c7.2,0,11.9-3.6,16-10.1c6,5.9,14.7,13.5,24.9,15.2
		c11.3,1.9,21.9-1.7,27-13.1c1.9,4.6,11.9,14.3,21.7,14.2c13.2-0.2,22.3-8.5,29.3-18.1c2.6,5,10.5,13.4,19.7,12.4
		c11.6-1.3,19.5-9.3,27-17.8v148.7c0,35.2-16.1,63.6-37.1,89.8c-13.9,17.4-34.6,34.3-60.4,47.7c-26.3-11.5-47.8-31.5-65.4-54
		c-18-23.2-32.7-51.4-33.2-82.1C142.3,110.7,143.2,60.6,143.4,10.5L143.4,10.5z M147.2,161.4c0.4,30.1,14.8,56.4,32.3,79.8
		c16,21.4,37.4,41.1,61.9,52c21.8-11.7,41.4-26.2,57.6-45.7c20.6-24.9,35.6-54.4,36.1-87.5c0.3-19.6,0.3-44.1,0.4-63.6
		c0.1-26.7,0-48.3,0-74.6c-6.8,6-13.9,11-22.9,11.6c-8.3,0.5-14.7-3.6-20.1-9.3c-7.3,9-18.3,15.4-29.9,15.1
		c-8.4-0.2-15.4-4.4-20.8-10.7c-7.1,8.4-16.4,11.6-26.9,9.9c-9.3-1.5-18.1-7.1-25.1-13.2c-4,5.9-9.8,8-16.2,7.9
		c-9.2-0.1-19.5-5.4-26.1-11.9c-0.5,24.8-0.7,49.9-0.7,75.2C146.8,118,146.9,140,147.2,161.4L147.2,161.4z"/>
	<path class="st2" d="M28.6,173.6V194c0,0.9,0.2,1.6,0.7,2.1c0.4,0.5,1.2,0.9,2.2,1.2v1.5H12.2v-1.5c1.1-0.3,1.8-0.7,2.3-1.2
		c0.4-0.5,0.6-1.2,0.6-2.1v-52.3c0-0.9-0.2-1.7-0.6-2.1c-0.4-0.5-1.2-0.9-2.3-1.2v-1.5h38.6c4.5,0,8.1,0.3,10.7,0.9
		c2.6,0.6,5,1.6,7,3.1c2.1,1.5,3.7,3.6,4.9,6.1c1.2,2.6,1.8,5.3,1.8,8.3c0,4.2-1.1,7.8-3.4,11c-1.9,2.7-4.5,4.6-7.7,5.7
		c-3.2,1.1-7.6,1.7-13.3,1.7H28.6L28.6,173.6z M28.6,163.4h20.6c4.1,0,7-0.4,8.7-1.3c1.1-0.6,1.9-1.5,2.6-2.7c0.6-1.3,1-2.6,1-4.1
		c0-1.5-0.3-2.9-1-4.1c-0.6-1.3-1.5-2.2-2.6-2.7c-1.6-0.9-4.5-1.3-8.7-1.3H28.6V163.4L28.6,163.4z"/>
	<path class="st1" d="M28.6,173.6V194c0,0.9,0.2,1.6,0.7,2.1c0.4,0.5,1.2,0.9,2.2,1.2v1.5H12.2v-1.5c1.1-0.3,1.8-0.7,2.3-1.2
		c0.4-0.5,0.6-1.2,0.6-2.1v-52.3c0-0.9-0.2-1.7-0.6-2.1c-0.4-0.5-1.2-0.9-2.3-1.2v-1.5h38.6c4.5,0,8.1,0.3,10.7,0.9
		c2.6,0.6,5,1.6,7,3.1c2.1,1.5,3.7,3.6,4.9,6.1c1.2,2.6,1.8,5.3,1.8,8.3c0,4.2-1.1,7.8-3.4,11c-1.9,2.7-4.5,4.6-7.7,5.7
		c-3.2,1.1-7.6,1.7-13.3,1.7H28.6L28.6,173.6z M28.6,163.4h20.6c4.1,0,7-0.4,8.7-1.3c1.1-0.6,1.9-1.5,2.6-2.7c0.6-1.3,1-2.6,1-4.1
		c0-1.5-0.3-2.9-1-4.1c-0.6-1.3-1.5-2.2-2.6-2.7c-1.6-0.9-4.5-1.3-8.7-1.3H28.6V163.4L28.6,163.4z"/>
	<path class="st3" d="M106.9,174.5V193c0,1.1,0.2,1.9,0.7,2.5c0.5,0.6,1.4,1,2.6,1.4v1.5H89.7v-1.5c1.2-0.3,2.1-0.8,2.6-1.3
		c0.5-0.6,0.8-1.4,0.8-2.5v-47.5c0-1.1-0.2-1.9-0.7-2.4c-0.5-0.5-1.3-1-2.6-1.4v-1.5h38.1c5,0,8.7,0.2,11.3,0.7
		c2.6,0.5,4.9,1.4,7,2.7c4.2,2.7,6.3,7.2,6.3,13.4c0,4.7-1.3,8.4-3.9,11c-2.6,2.7-6.8,4.6-12.5,5.7l11,15.3c2,2.8,3.6,4.7,4.8,5.8
		c1.2,1,2.6,1.7,4.1,1.9v1.5h-24.4v-1.5c1.8-0.5,2.7-1.3,2.7-2.3c0-0.8-0.6-1.9-1.7-3.5l-11.6-16.6H106.9L106.9,174.5z M106.9,164
		h21c3.2,0,5.5-0.4,7.1-1c2.1-0.9,3.2-2.8,3.2-5.5c0-2.5-0.7-4.2-2.2-5.1c-1.5-1-4.2-1.5-8-1.5h-21V164L106.9,164z"/>
	<path class="st1" d="M106.9,174.5V193c0,1.1,0.2,1.9,0.7,2.5c0.5,0.6,1.4,1,2.6,1.4v1.5H89.7v-1.5c1.2-0.3,2.1-0.8,2.6-1.3
		c0.5-0.6,0.8-1.4,0.8-2.5v-47.5c0-1.1-0.2-1.9-0.7-2.4c-0.5-0.5-1.3-1-2.6-1.4v-1.5h38.1c5,0,8.7,0.2,11.3,0.7
		c2.6,0.5,4.9,1.4,7,2.7c4.2,2.7,6.3,7.2,6.3,13.4c0,4.7-1.3,8.4-3.9,11c-2.6,2.7-6.8,4.6-12.5,5.7l11,15.3c2,2.8,3.6,4.7,4.8,5.8
		c1.2,1,2.6,1.7,4.1,1.9v1.5h-24.4v-1.5c1.8-0.5,2.7-1.3,2.7-2.3c0-0.8-0.6-1.9-1.7-3.5l-11.6-16.6H106.9L106.9,174.5z M106.9,164
		h21c3.2,0,5.5-0.4,7.1-1c2.1-0.9,3.2-2.8,3.2-5.5c0-2.5-0.7-4.2-2.2-5.1c-1.5-1-4.2-1.5-8-1.5h-21V164L106.9,164z"/>
	<path class="st3" d="M429.6,174.5V193c0,1.1,0.2,1.9,0.7,2.5c0.5,0.6,1.4,1,2.6,1.4v1.5h-20.6v-1.5c1.2-0.3,2.1-0.8,2.6-1.3
		c0.5-0.6,0.8-1.4,0.8-2.5v-47.5c0-1.1-0.2-1.9-0.7-2.4c-0.5-0.5-1.3-1-2.6-1.4v-1.5h38.1c5,0,8.7,0.2,11.3,0.7
		c2.6,0.5,4.9,1.4,7,2.7c4.2,2.7,6.3,7.2,6.3,13.4c0,4.7-1.3,8.4-3.9,11c-2.6,2.7-6.8,4.6-12.5,5.7l11,15.3c2,2.8,3.6,4.7,4.8,5.8
		c1.2,1,2.6,1.7,4.1,1.9v1.5h-24.4v-1.5c1.8-0.5,2.7-1.3,2.7-2.3c0-0.8-0.6-1.9-1.7-3.5l-11.6-16.6H429.6L429.6,174.5z M429.6,164
		h21c3.2,0,5.5-0.4,7.1-1c2.1-0.9,3.2-2.8,3.2-5.5c0-2.5-0.7-4.2-2.3-5.1c-1.5-1-4.2-1.5-8-1.5h-21V164L429.6,164z"/>
	<path class="st1" d="M429.6,174.5V193c0,1.1,0.2,1.9,0.7,2.5c0.5,0.6,1.4,1,2.6,1.4v1.5h-20.6v-1.5c1.2-0.3,2.1-0.8,2.6-1.3
		c0.5-0.6,0.8-1.4,0.8-2.5v-47.5c0-1.1-0.2-1.9-0.7-2.4c-0.5-0.5-1.3-1-2.6-1.4v-1.5h38.1c5,0,8.7,0.2,11.3,0.7
		c2.6,0.5,4.9,1.4,7,2.7c4.2,2.7,6.3,7.2,6.3,13.4c0,4.7-1.3,8.4-3.9,11c-2.6,2.7-6.8,4.6-12.5,5.7l11,15.3c2,2.8,3.6,4.7,4.8,5.8
		c1.2,1,2.6,1.7,4.1,1.9v1.5h-24.4v-1.5c1.8-0.5,2.7-1.3,2.7-2.3c0-0.8-0.6-1.9-1.7-3.5l-11.6-16.6H429.6L429.6,174.5z M429.6,164
		h21c3.2,0,5.5-0.4,7.1-1c2.1-0.9,3.2-2.8,3.2-5.5c0-2.5-0.7-4.2-2.3-5.1c-1.5-1-4.2-1.5-8-1.5h-21V164L429.6,164z"/>
	<path class="st3" d="M351.2,173.7v14.2h36.9c1.1,0,1.9-0.2,2.5-0.7c0.6-0.5,1-1.4,1.4-2.6h1.5v17.2H392c-0.3-1.2-0.8-2.1-1.3-2.6
		c-0.6-0.5-1.4-0.8-2.5-0.8H334v-1.5c1.2-0.3,2.1-0.8,2.6-1.3c0.5-0.6,0.8-1.4,0.8-2.5v-47.5c0-1.1-0.2-1.9-0.7-2.4
		c-0.5-0.5-1.3-1-2.6-1.4v-1.5h52.5c1.1,0,1.9-0.2,2.5-0.7c0.6-0.5,1-1.4,1.4-2.6h1.4v17.2h-1.4c-0.4-1.3-0.8-2.2-1.4-2.6
		c-0.6-0.5-1.4-0.7-2.5-0.7h-35.3v12.8h21.9c1.1,0,1.9-0.2,2.5-0.7c0.6-0.5,1.1-1.4,1.4-2.6h1.4V177H377c-0.4-1.2-0.8-2.1-1.4-2.6
		c-0.6-0.5-1.4-0.7-2.5-0.7H351.2L351.2,173.7z"/>
	<path class="st1" d="M351.2,173.7v14.2h36.9c1.1,0,1.9-0.2,2.5-0.7c0.6-0.5,1-1.4,1.4-2.6h1.5v17.2H392c-0.3-1.2-0.8-2.1-1.3-2.6
		c-0.6-0.5-1.4-0.8-2.5-0.8H334v-1.5c1.2-0.3,2.1-0.8,2.6-1.3c0.5-0.6,0.8-1.4,0.8-2.5v-47.5c0-1.1-0.2-1.9-0.7-2.4
		c-0.5-0.5-1.3-1-2.6-1.4v-1.5h52.5c1.1,0,1.9-0.2,2.5-0.7c0.6-0.5,1-1.4,1.4-2.6h1.4v17.2h-1.4c-0.4-1.3-0.8-2.2-1.4-2.6
		c-0.6-0.5-1.4-0.7-2.5-0.7h-35.3v12.8h21.9c1.1,0,1.9-0.2,2.5-0.7c0.6-0.5,1.1-1.4,1.4-2.6h1.4V177H377c-0.4-1.2-0.8-2.1-1.4-2.6
		c-0.6-0.5-1.4-0.7-2.5-0.7H351.2L351.2,173.7z"/>
	<path class="st3" d="M284.9,180l14.1-30.8c0.8-1.8,1.2-3.1,1.2-4c0-1.7-1.1-2.9-3.4-3.6v-1.5h22.5v1.5c-1.4,0.4-2.4,1-3,1.7
		c-0.6,0.7-1.4,2-2.4,4l-20.3,42.8c-0.7,1.5-1.1,2.7-1.1,3.5c0,1.7,1.2,2.8,3.4,3.3v1.4h-22.8V197c2.3-0.4,3.4-1.5,3.4-3.3
		c0-0.8-0.4-1.9-1.1-3.5L255,147.4c-1-2.1-1.8-3.4-2.4-4.1c-0.6-0.6-1.6-1.2-3-1.6v-1.5h23.3v1.5c-2.2,0.7-3.3,1.9-3.3,3.6
		c0,0.8,0.4,2.1,1.3,4L284.9,180L284.9,180z"/>
	<path class="st1" d="M284.9,180l14.1-30.8c0.8-1.8,1.2-3.1,1.2-4c0-1.7-1.1-2.9-3.4-3.6v-1.5h22.5v1.5c-1.4,0.4-2.4,1-3,1.7
		c-0.6,0.7-1.4,2-2.4,4l-20.3,42.8c-0.7,1.5-1.1,2.7-1.1,3.5c0,1.7,1.2,2.8,3.4,3.3v1.4h-22.8V197c2.3-0.4,3.4-1.5,3.4-3.3
		c0-0.8-0.4-1.9-1.1-3.5L255,147.4c-1-2.1-1.8-3.4-2.4-4.1c-0.6-0.6-1.6-1.2-3-1.6v-1.5h23.3v1.5c-2.2,0.7-3.3,1.9-3.3,3.6
		c0,0.8,0.4,2.1,1.3,4L284.9,180L284.9,180z"/>
	<path class="st3" d="M193.1,173.7v14.2H230c1.1,0,1.9-0.2,2.5-0.7c0.6-0.5,1-1.4,1.4-2.6h1.5v17.2h-1.5c-0.3-1.2-0.8-2.1-1.3-2.6
		c-0.6-0.5-1.4-0.8-2.5-0.8h-54.1v-1.5c1.2-0.3,2.1-0.8,2.6-1.3c0.5-0.6,0.8-1.4,0.8-2.5v-47.5c0-1.1-0.2-1.9-0.7-2.4
		c-0.5-0.5-1.3-1-2.6-1.4v-1.5h52.5c1.1,0,1.9-0.2,2.5-0.7c0.6-0.5,1-1.4,1.4-2.6h1.4v17.2h-1.4c-0.4-1.3-0.8-2.2-1.4-2.6
		c-0.6-0.5-1.4-0.7-2.5-0.7h-35.3v12.8H215c1.1,0,1.9-0.2,2.5-0.7c0.6-0.5,1.1-1.4,1.4-2.6h1.4V177h-1.4c-0.4-1.2-0.8-2.1-1.4-2.6
		c-0.6-0.5-1.4-0.7-2.5-0.7H193.1L193.1,173.7z"/>
	<path class="st1" d="M193.1,173.7v14.2H230c1.1,0,1.9-0.2,2.5-0.7c0.6-0.5,1-1.4,1.4-2.6h1.5v17.2h-1.5c-0.3-1.2-0.8-2.1-1.3-2.6
		c-0.6-0.5-1.4-0.8-2.5-0.8h-54.1v-1.5c1.2-0.3,2.1-0.8,2.6-1.3c0.5-0.6,0.8-1.4,0.8-2.5v-47.5c0-1.1-0.2-1.9-0.7-2.4
		c-0.5-0.5-1.3-1-2.6-1.4v-1.5h52.5c1.1,0,1.9-0.2,2.5-0.7c0.6-0.5,1-1.4,1.4-2.6h1.4v17.2h-1.4c-0.4-1.3-0.8-2.2-1.4-2.6
		c-0.6-0.5-1.4-0.7-2.5-0.7h-35.3v12.8H215c1.1,0,1.9-0.2,2.5-0.7c0.6-0.5,1.1-1.4,1.4-2.6h1.4V177h-1.4c-0.4-1.2-0.8-2.1-1.4-2.6
		c-0.6-0.5-1.4-0.7-2.5-0.7H193.1L193.1,173.7z"/>
	<path d="M175.1,90.9v-8.1h13.4v16.6c-2.6,2.4-4.8,4.1-6.8,5c-2,0.9-4.3,1.3-7,1.3c-3.3,0-6-0.8-8.1-2.4c-2.1-1.6-3.7-3.9-4.9-7.1
		c-1.2-3.1-1.7-6.7-1.7-10.8c0-4.3,0.6-8,1.9-11.1c1.3-3.1,3.1-5.5,5.5-7.2c1.9-1.3,4.5-1.9,7.7-1.9c3.1,0,5.4,0.4,7,1.2
		c1.5,0.8,2.8,2,3.8,3.6c1,1.6,1.8,3.7,2.3,6.2l-8.4,2.1c-0.3-1.5-0.9-2.6-1.8-3.4c-0.8-0.8-1.9-1.2-3.1-1.2c-1.9,0-3.4,0.9-4.5,2.8
		c-1.1,1.8-1.7,4.7-1.7,8.7c0,4.2,0.6,7.2,1.7,9.1c1.1,1.8,2.7,2.7,4.8,2.7c1,0,1.9-0.2,2.8-0.6c0.9-0.4,1.9-1.1,3-2v-3.7H175.1
		L175.1,90.9z M196.6,105V66h14.4c2.7,0,4.7,0.3,6.1,1c1.4,0.6,2.6,1.8,3.4,3.6c0.9,1.7,1.3,3.8,1.3,6.3c0,2.2-0.3,4-1,5.6
		c-0.7,1.6-1.6,2.8-2.7,3.8c-0.7,0.6-1.8,1.1-3,1.5c1,0.5,1.8,1,2.3,1.4c0.3,0.3,0.8,1,1.4,2c0.6,1.1,1,1.9,1.2,2.4l4.2,11.3h-9.8
		l-4.6-11.9c-0.6-1.5-1.1-2.5-1.6-3c-0.6-0.6-1.3-0.9-2.1-0.9h-0.8V105H196.6L196.6,105z M205.3,81.8h3.7c0.4,0,1.2-0.2,2.3-0.5
		c0.6-0.2,1-0.6,1.4-1.2c0.4-0.7,0.5-1.4,0.5-2.3c0-1.3-0.3-2.2-0.9-2.9c-0.6-0.7-1.7-1-3.2-1h-3.8V81.8L205.3,81.8z M247.5,66h8.6
		v23.3c0,2.3-0.3,4.5-0.8,6.5c-0.5,2-1.3,3.8-2.4,5.4c-1.1,1.5-2.3,2.6-3.5,3.2c-1.7,0.9-3.7,1.3-6.1,1.3c-1.4,0-2.9-0.1-4.5-0.4
		c-1.6-0.3-3-0.8-4-1.6c-1.1-0.8-2.1-1.9-3-3.4c-0.9-1.5-1.5-3-1.8-4.5c-0.5-2.5-0.8-4.7-0.8-6.6V66h8.6v23.8c0,2.1,0.4,3.8,1.3,5
		c0.8,1.2,2,1.8,3.5,1.8c1.5,0,2.7-0.6,3.5-1.8c0.8-1.2,1.3-2.9,1.3-5V66L247.5,66z M264.7,66h14.4c3.1,0,5.5,1,7,3.1
		c1.6,2.1,2.3,5,2.3,8.9c0,3.9-0.8,7-2.6,9.2c-1.7,2.2-4.3,3.3-7.8,3.3h-4.7V105h-8.7V66L264.7,66z M273.4,82.6h2.1
		c1.7,0,2.8-0.4,3.5-1.2c0.7-0.8,1-1.8,1-3.1c0-1.2-0.3-2.3-0.9-3.1c-0.6-0.9-1.7-1.3-3.3-1.3h-2.5V82.6L273.4,82.6z M294.9,85.5
		c0-6.4,1.3-11.3,3.8-14.9c2.6-3.6,6.1-5.3,10.7-5.3c4.7,0,8.3,1.7,10.8,5.2c2.5,3.5,3.8,8.4,3.8,14.6c0,4.6-0.6,8.3-1.7,11.2
		c-1.1,2.9-2.7,5.2-4.8,6.8c-2.1,1.6-4.7,2.4-7.8,2.4c-3.2,0-5.8-0.7-7.9-2.1c-2.1-1.4-3.7-3.6-5-6.7
		C295.5,93.9,294.9,90.1,294.9,85.5L294.9,85.5z M303.5,85.6c0,3.9,0.5,6.8,1.6,8.5c1.1,1.7,2.5,2.6,4.3,2.6c1.9,0,3.3-0.8,4.3-2.5
		c1-1.7,1.5-4.7,1.5-9.1c0-3.7-0.5-6.4-1.6-8.1c-1.1-1.7-2.5-2.5-4.3-2.5c-1.7,0-3.1,0.9-4.2,2.6C304.1,78.8,303.5,81.6,303.5,85.6
		L303.5,85.6z"/>
</g>
</svg>
